<svg xmlns="http://www.w3.org/2000/svg" xmlns:xlink="http://www.w3.org/1999/xlink" width="300" zoomAndPan="magnify" viewBox="0 0 224.87999 149.999998" height="200" preserveAspectRatio="xMidYMid meet" version="1.0"><defs><g/><clipPath id="id1"><path d="M 26 0.0390625 L 69 0.0390625 L 69 42 L 26 42 Z M 26 0.0390625 " clip-rule="nonzero"/></clipPath><clipPath id="id2"><path d="M 0 7 L 45 7 L 45 45.765625 L 0 45.765625 Z M 0 7 " clip-rule="nonzero"/></clipPath><clipPath id="id3"><path d="M 21 0.0390625 L 63 0.0390625 L 63 22 L 21 22 Z M 21 0.0390625 " clip-rule="nonzero"/></clipPath><clipPath id="id4"><path d="M 64 22 L 88.453125 22 L 88.453125 44 L 64 44 Z M 64 22 " clip-rule="nonzero"/></clipPath></defs><g clip-path="url(#id1)"><path fill="#00c2cb" d="M 29.625 23.308594 C 33.800781 27.644531 38.996094 32.269531 45.210938 37.148438 C 60.472656 26.917969 66.839844 18.058594 64.3125 10.582031 C 61.171875 4.269531 56.09375 2.886719 49.066406 6.429688 L 46.007812 3.933594 C 49.355469 0.996094 53.9375 -0.132812 58.285156 0.894531 C 62.628906 1.925781 66.195312 4.996094 67.84375 9.132812 C 71.527344 20.625 60.863281 30.160156 45.414062 41.550781 C 38.351562 36.707031 32.121094 31.460938 26.707031 25.839844 L 29.660156 23.289062 Z M 29.625 23.308594 " fill-opacity="1" fill-rule="evenodd"/></g><g clip-path="url(#id2)"><path fill="#104069" d="M 24.089844 27.492188 C 26.28125 29.078125 25.28125 32.371094 21.101562 37.398438 C 17.113281 42.226562 13.359375 46.867188 7.46875 44.726562 C 6.570312 45.0625 5.570312 44.808594 4.941406 44.101562 C 4.3125 43.390625 4.175781 42.378906 4.617188 41.535156 C 5.058594 40.691406 5.960938 40.203125 6.910156 40.304688 C 7.859375 40.402344 8.640625 41.078125 8.894531 41.992188 C 10.984375 42.96875 13.75 41.46875 17.199219 37.484375 C 16.996094 35.003906 19.984375 34.023438 21.867188 30.566406 C 21.578125 28.675781 20.136719 26.9375 17.519531 25.332031 C 14.449219 25.179688 12.917969 28.386719 9.777344 27.984375 C 5.078125 29.992188 3.003906 32.285156 3.566406 34.867188 C 4.378906 35.375 4.804688 36.320312 4.636719 37.25 C 4.464844 38.195312 3.753906 38.9375 2.816406 39.136719 C 1.882812 39.339844 0.917969 38.953125 0.375 38.175781 C -0.167969 37.382812 -0.167969 36.355469 0.355469 35.5625 C -0.1875 30.835938 2.972656 27.207031 9.847656 24.691406 C 16.113281 21.300781 19.726562 20.859375 20.679688 23.390625 L 22.816406 21.46875 L 23.464844 22.210938 L 41.664062 7.542969 L 44.617188 10.109375 L 25.652344 25.078125 L 26.265625 25.738281 L 24.058594 27.476562 Z M 24.089844 27.492188 " fill-opacity="1" fill-rule="evenodd"/></g><g clip-path="url(#id3)"><path fill="#104069" d="M 26.65625 18.328125 L 23.394531 20.828125 C 16.6875 4.859375 32.9375 -4.234375 44.601562 3.832031 L 62.679688 18.632812 L 60.625 21.839844 L 40.984375 6.078125 C 37.332031 3.445312 32.359375 3.644531 28.945312 6.566406 C 25.535156 9.484375 24.582031 14.347656 26.65625 18.328125 Z M 26.65625 18.328125 " fill-opacity="1" fill-rule="evenodd"/></g><g clip-path="url(#id4)"><path fill="#00c2cb" d="M 72.578125 42.160156 C 67.976562 39.476562 66.109375 33.804688 68.234375 28.945312 L 66.007812 27.191406 L 66.363281 26.734375 L 64.90625 25.550781 L 67.179688 22.144531 C 68.285156 23.257812 68.828125 23.832031 68.808594 23.863281 L 69.371094 23.191406 L 71.253906 24.960938 C 75.398438 21.636719 81.390625 21.90625 85.226562 25.601562 C 89.046875 29.300781 89.503906 35.238281 86.28125 39.460938 C 83.054688 43.679688 77.164062 44.84375 72.5625 42.160156 Z M 77.757812 26.617188 C 74.191406 26.617188 71.304688 29.484375 71.304688 33.027344 C 71.304688 36.574219 74.191406 39.441406 77.757812 39.441406 C 81.320312 39.441406 84.207031 36.574219 84.207031 33.027344 C 84.207031 29.484375 81.320312 26.617188 77.757812 26.617188 Z M 77.757812 26.617188 " fill-opacity="1" fill-rule="evenodd"/></g><path fill="#00c2cb" d="M 72.441406 33.046875 C 72.441406 30.125 74.820312 27.761719 77.757812 27.761719 C 80.695312 27.761719 83.070312 30.125 83.070312 33.046875 C 83.070312 35.964844 80.695312 38.328125 77.757812 38.328125 C 74.820312 38.328125 72.441406 35.964844 72.441406 33.046875 Z M 78.097656 28.808594 C 75.71875 28.808594 73.785156 30.734375 73.785156 33.097656 C 73.785156 35.460938 75.71875 37.382812 78.097656 37.382812 C 80.472656 37.382812 82.410156 35.460938 82.410156 33.097656 C 82.410156 30.734375 80.472656 28.808594 78.097656 28.808594 Z M 78.097656 28.808594 " fill-opacity="1" fill-rule="evenodd"/><path fill="#00c2cb" d="M 78.128906 35.1875 C 79.234375 34.902344 80.066406 33.992188 80.234375 32.878906 C 80.40625 31.761719 79.894531 30.632812 78.910156 30.042969 C 80.269531 30.464844 81.152344 31.761719 81.050781 33.164062 C 80.949219 34.582031 79.894531 35.730469 78.488281 35.964844 C 77.078125 36.203125 75.703125 35.460938 75.140625 34.160156 C 75.839844 35.054688 77.011719 35.460938 78.113281 35.1875 Z M 78.128906 35.1875 " fill-opacity="1" fill-rule="evenodd"/><path fill="#00c2cb" d="M 48.691406 17.503906 L 45.175781 17.503906 L 45.175781 20.996094 L 48.691406 20.996094 Z M 43.257812 17.503906 L 39.746094 17.503906 L 39.746094 20.996094 L 43.257812 20.996094 Z M 39.746094 22.902344 L 39.746094 26.394531 L 43.257812 26.394531 L 43.257812 22.902344 Z M 45.175781 26.394531 L 48.691406 26.394531 L 48.691406 22.902344 L 45.175781 22.902344 Z M 45.175781 26.394531 " fill-opacity="1" fill-rule="evenodd"/><g fill="#104069" fill-opacity="1"><g transform="translate(88.850071, 37.470666)"><g><path d="M 2.875 0 C 2.457031 0 2.25 -0.207031 2.25 -0.625 L 2.25 -24.859375 C 2.25 -25.265625 2.457031 -25.46875 2.875 -25.46875 L 6.765625 -25.46875 C 7.078125 -25.46875 7.320312 -25.335938 7.5 -25.078125 L 12.765625 -16.5625 C 12.816406 -16.488281 12.875 -16.453125 12.9375 -16.453125 C 13 -16.453125 13.039062 -16.488281 13.0625 -16.5625 L 18.40625 -25.078125 C 18.582031 -25.335938 18.828125 -25.46875 19.140625 -25.46875 L 23.03125 -25.46875 C 23.445312 -25.46875 23.65625 -25.265625 23.65625 -24.859375 L 23.65625 -0.625 C 23.65625 -0.207031 23.445312 0 23.03125 0 L 19.140625 0 C 18.722656 0 18.515625 -0.207031 18.515625 -0.625 L 18.515625 -16.375 C 18.515625 -16.46875 18.484375 -16.523438 18.421875 -16.546875 C 18.367188 -16.578125 18.316406 -16.546875 18.265625 -16.453125 L 14.59375 -10.4375 C 14.425781 -10.175781 14.179688 -10.046875 13.859375 -10.046875 L 12.015625 -10.046875 C 11.691406 -10.046875 11.445312 -10.175781 11.28125 -10.4375 L 7.640625 -16.453125 C 7.585938 -16.546875 7.53125 -16.578125 7.46875 -16.546875 C 7.414062 -16.523438 7.390625 -16.46875 7.390625 -16.375 L 7.390625 -0.625 C 7.390625 -0.207031 7.179688 0 6.765625 0 Z M 2.875 0 "/></g></g></g><g fill="#104069" fill-opacity="1"><g transform="translate(114.723277, 37.470666)"><g><path d="M 10.921875 -4.046875 C 12.515625 -4.117188 13.738281 -4.675781 14.59375 -5.71875 C 14.738281 -5.882812 14.894531 -5.96875 15.0625 -5.96875 C 15.207031 -5.96875 15.34375 -5.90625 15.46875 -5.78125 L 17.546875 -3.78125 C 17.691406 -3.632812 17.765625 -3.488281 17.765625 -3.34375 C 17.765625 -3.175781 17.710938 -3.03125 17.609375 -2.90625 C 16.804688 -1.914062 15.78125 -1.132812 14.53125 -0.5625 C 13.28125 0.0078125 11.914062 0.296875 10.4375 0.296875 C 8.207031 0.296875 6.359375 -0.269531 4.890625 -1.40625 C 3.421875 -2.550781 2.429688 -4.117188 1.921875 -6.109375 C 1.628906 -7.179688 1.484375 -8.3125 1.484375 -9.5 C 1.484375 -10.90625 1.617188 -12.09375 1.890625 -13.0625 C 2.378906 -14.851562 3.351562 -16.296875 4.8125 -17.390625 C 6.28125 -18.484375 8.023438 -19.03125 10.046875 -19.03125 C 12.421875 -19.03125 14.304688 -18.328125 15.703125 -16.921875 C 17.097656 -15.515625 18 -13.535156 18.40625 -10.984375 C 18.507812 -10.179688 18.582031 -9.296875 18.625 -8.328125 C 18.625 -7.921875 18.421875 -7.71875 18.015625 -7.71875 L 6.84375 -7.71875 C 6.695312 -7.71875 6.625 -7.644531 6.625 -7.5 C 6.695312 -6.988281 6.78125 -6.613281 6.875 -6.375 C 7.113281 -5.613281 7.59375 -5.035156 8.3125 -4.640625 C 9.03125 -4.242188 9.898438 -4.046875 10.921875 -4.046875 Z M 9.96875 -14.59375 C 9.195312 -14.59375 8.546875 -14.40625 8.015625 -14.03125 C 7.492188 -13.65625 7.140625 -13.128906 6.953125 -12.453125 C 6.828125 -11.984375 6.753906 -11.675781 6.734375 -11.53125 C 6.710938 -11.382812 6.773438 -11.3125 6.921875 -11.3125 L 13.09375 -11.3125 C 13.21875 -11.3125 13.28125 -11.363281 13.28125 -11.46875 C 13.28125 -11.726562 13.234375 -12.003906 13.140625 -12.296875 C 12.921875 -13.003906 12.539062 -13.5625 12 -13.96875 C 11.46875 -14.382812 10.789062 -14.59375 9.96875 -14.59375 Z M 9.96875 -14.59375 "/></g></g></g><g fill="#104069" fill-opacity="1"><g transform="translate(134.628542, 37.470666)"><g><path d="M 13.171875 -24.859375 C 13.171875 -25.265625 13.378906 -25.46875 13.796875 -25.46875 L 17.6875 -25.46875 C 18.09375 -25.46875 18.296875 -25.265625 18.296875 -24.859375 L 18.296875 -0.625 C 18.296875 -0.207031 18.09375 0 17.6875 0 L 13.796875 0 C 13.378906 0 13.171875 -0.207031 13.171875 -0.625 L 13.171875 -1.59375 C 13.171875 -1.695312 13.140625 -1.753906 13.078125 -1.765625 C 13.015625 -1.773438 12.960938 -1.742188 12.921875 -1.671875 C 11.921875 -0.359375 10.535156 0.296875 8.765625 0.296875 C 7.117188 0.296875 5.65625 -0.191406 4.375 -1.171875 C 3.101562 -2.160156 2.226562 -3.457031 1.75 -5.0625 C 1.332031 -6.226562 1.125 -7.679688 1.125 -9.421875 C 1.125 -11.222656 1.351562 -12.726562 1.8125 -13.9375 C 2.351562 -15.488281 3.234375 -16.722656 4.453125 -17.640625 C 5.679688 -18.566406 7.117188 -19.03125 8.765625 -19.03125 C 10.566406 -19.03125 11.953125 -18.4375 12.921875 -17.25 C 12.960938 -17.175781 13.015625 -17.148438 13.078125 -17.171875 C 13.140625 -17.203125 13.171875 -17.265625 13.171875 -17.359375 Z M 12.40625 -5.75 C 12.894531 -6.644531 13.140625 -7.847656 13.140625 -9.359375 C 13.140625 -10.953125 12.882812 -12.195312 12.375 -13.09375 C 11.769531 -14.039062 10.957031 -14.515625 9.9375 -14.515625 C 8.820312 -14.515625 7.972656 -14.054688 7.390625 -13.140625 C 6.804688 -12.171875 6.515625 -10.894531 6.515625 -9.3125 C 6.515625 -7.882812 6.769531 -6.695312 7.28125 -5.75 C 7.863281 -4.707031 8.75 -4.1875 9.9375 -4.1875 C 11 -4.1875 11.820312 -4.707031 12.40625 -5.75 Z M 12.40625 -5.75 "/></g></g></g><g fill="#104069" fill-opacity="1"><g transform="translate(154.897705, 37.470666)"><g><path d="M 1.671875 -8.546875 C 1.265625 -8.546875 1.0625 -8.753906 1.0625 -9.171875 L 1.0625 -12.34375 C 1.0625 -12.75 1.265625 -12.953125 1.671875 -12.953125 L 13.203125 -12.953125 C 13.617188 -12.953125 13.828125 -12.75 13.828125 -12.34375 L 13.828125 -9.171875 C 13.828125 -8.753906 13.617188 -8.546875 13.203125 -8.546875 Z M 1.671875 -8.546875 "/></g></g></g><g fill="#104069" fill-opacity="1"><g transform="translate(169.781168, 37.470666)"><g><path d="M 2.84375 0 C 2.425781 0 2.21875 -0.207031 2.21875 -0.625 L 2.21875 -24.859375 C 2.21875 -25.265625 2.425781 -25.46875 2.84375 -25.46875 L 11.75 -25.46875 C 13.570312 -25.46875 15.164062 -25.144531 16.53125 -24.5 C 17.90625 -23.863281 18.96875 -22.960938 19.71875 -21.796875 C 20.476562 -20.628906 20.859375 -19.285156 20.859375 -17.765625 L 20.859375 -7.71875 C 20.859375 -6.1875 20.476562 -4.835938 19.71875 -3.671875 C 18.96875 -2.503906 17.90625 -1.597656 16.53125 -0.953125 C 15.164062 -0.316406 13.570312 0 11.75 0 Z M 7.34375 -4.625 C 7.34375 -4.476562 7.414062 -4.40625 7.5625 -4.40625 L 11.9375 -4.40625 C 13.050781 -4.40625 13.953125 -4.78125 14.640625 -5.53125 C 15.335938 -6.28125 15.695312 -7.285156 15.71875 -8.546875 L 15.71875 -16.921875 C 15.71875 -18.179688 15.367188 -19.1875 14.671875 -19.9375 C 13.984375 -20.6875 13.0625 -21.0625 11.90625 -21.0625 L 7.5625 -21.0625 C 7.414062 -21.0625 7.34375 -20.992188 7.34375 -20.859375 Z M 7.34375 -4.625 "/></g></g></g></svg>